<mxfile host="app.diagrams.net" modified="2024-02-24T16:25:07.248Z" agent="Mozilla/5.0 (X11; Linux x86_64) AppleWebKit/537.36 (KHTML, like Gecko) Chrome/121.0.0.0 Safari/537.36" version="23.1.6" etag="lVCWGpDXIOkIfwPqVUAa" type="github">
  <diagram name="Page-1" id="GV6d1KkM9Cwe58hdBjQx">
    <mxGraphModel>
      <root>
        <mxCell id="0" />
        <mxCell id="1" parent="0" />
      </root>
    </mxGraphModel>
  </diagram>
</mxfile>
